<svg width="20" height="20" viewBox="0 0 20 20" fill="none" xmlns="http://www.w3.org/2000/svg">
<path d="M14.1667 12.5H15.8334V14.1666H14.1667V12.5ZM15.8334 9.16663H14.1667V10.8333H15.8334V9.16663Z" fill="#F8F8F8"/>
<path fill-rule="evenodd" clip-rule="evenodd" d="M10.8333 5.83333H19.1667V17.5H0.833344V2.5H10.8333V5.83333ZM6.66668 4.16667H9.16668V5.83333H6.66668V4.16667ZM9.16668 15.8333V14.1667H6.66668V15.8333H9.16668ZM9.16668 12.5V10.8333H6.66668V12.5H9.16668ZM9.16668 9.16667V7.5H6.66668V9.16667H9.16668ZM17.5 15.8333V7.5H10.8333V9.16667H12.5V10.8333H10.8333V12.5H12.5V14.1667H10.8333V15.8333H17.5ZM2.50001 15.8333V14.1667H5.00001V15.8333H2.50001ZM2.50001 12.5H5.00001V10.8333H2.50001V12.5ZM5.00001 9.16667V7.5H2.50001V9.16667H5.00001ZM2.50001 5.83333H5.00001V4.16667H2.50001V5.83333Z" fill="#F8F8F8"/>
</svg>
