<svg width="20" height="20" viewBox="0 0 20 20" fill="none" xmlns="http://www.w3.org/2000/svg">
<path d="M16 1.09997L4 5.89997C2.9 6.29997 2 7.69997 2 8.89997V17.6C2 18.8 2.9 19.4 4 19L16 14.2C17.1 13.8 18 12.4 18 11.2V2.49997C18 1.29997 17.1 0.699971 16 1.09997ZM16.6 3.69997L10.6 13L3.9 8.49997C3.8 8.39997 3.5 8.09997 3.7 7.79997C3.9 7.39997 4.4 7.59997 4.4 7.59997L10.7 9.89997C10.7 9.89997 15.5 3.59997 15.8 3.19997C15.9 2.99997 16.2 2.89997 16.5 3.09997C16.8 3.29997 16.7 3.59997 16.6 3.69997Z" fill="#F8F8F8"/>
</svg>
