<svg width="20" height="20" viewBox="0 0 20 20" fill="none" xmlns="http://www.w3.org/2000/svg">
<g clip-path="url(#clip0_2_6101)">
<path d="M12.5 3.75C12.8315 3.75 13.1495 3.8817 13.3839 4.11612C13.6183 4.35054 13.75 4.66848 13.75 5V15C13.75 15.3315 13.6183 15.6495 13.3839 15.8839C13.1495 16.1183 12.8315 16.25 12.5 16.25H7.5C7.16848 16.25 6.85054 16.1183 6.61612 15.8839C6.3817 15.6495 6.25 15.3315 6.25 15V5C6.25 4.66848 6.3817 4.35054 6.61612 4.11612C6.85054 3.8817 7.16848 3.75 7.5 3.75H12.5ZM7.5 2.5C6.83696 2.5 6.20107 2.76339 5.73223 3.23223C5.26339 3.70107 5 4.33696 5 5V15C5 15.663 5.26339 16.2989 5.73223 16.7678C6.20107 17.2366 6.83696 17.5 7.5 17.5H12.5C13.163 17.5 13.7989 17.2366 14.2678 16.7678C14.7366 16.2989 15 15.663 15 15V5C15 4.33696 14.7366 3.70107 14.2678 3.23223C13.7989 2.76339 13.163 2.5 12.5 2.5H7.5Z" fill="#F8F8F8"/>
<path d="M10 15C10.3315 15 10.6495 14.8683 10.8839 14.6338C11.1183 14.3994 11.25 14.0815 11.25 13.75C11.25 13.4184 11.1183 13.1005 10.8839 12.8661C10.6495 12.6317 10.3315 12.5 10 12.5C9.66849 12.5 9.35055 12.6317 9.11613 12.8661C8.88171 13.1005 8.75001 13.4184 8.75001 13.75C8.75001 14.0815 8.88171 14.3994 9.11613 14.6338C9.35055 14.8683 9.66849 15 10 15ZM1.99876 5.07246C2.07133 5.11086 2.13562 5.16317 2.18797 5.22643C2.24031 5.28968 2.27968 5.36262 2.30382 5.44109C2.32797 5.51956 2.33642 5.60202 2.32869 5.68376C2.32095 5.7655 2.29719 5.84491 2.25876 5.91746C1.59407 7.17546 1.24772 8.57715 1.25001 9.99996C1.25001 11.475 1.61501 12.865 2.25876 14.0825C2.33634 14.229 2.35252 14.4003 2.30377 14.5588C2.25501 14.7173 2.14529 14.8499 1.99876 14.9275C1.85223 15.005 1.68088 15.0212 1.52241 14.9725C1.36394 14.9237 1.23134 14.814 1.15376 14.6675C0.39379 13.2292 -0.00233444 11.6267 1.03493e-05 9.99996C1.03493e-05 8.31621 0.41751 6.72621 1.15376 5.33246C1.19216 5.25989 1.24448 5.1956 1.30773 5.14325C1.37098 5.09091 1.44392 5.05154 1.52239 5.02739C1.60087 5.00325 1.68332 4.9948 1.76506 5.00253C1.8468 5.01027 1.92621 5.03403 1.99876 5.07246ZM18.0013 5.07246C18.0738 5.03403 18.1532 5.01027 18.235 5.00253C18.3167 4.9948 18.3992 5.00325 18.4776 5.02739C18.5561 5.05154 18.629 5.09091 18.6923 5.14325C18.7555 5.1956 18.8079 5.25989 18.8463 5.33246C19.6063 6.77071 20.0024 8.37325 20 9.99996C20.0024 11.6267 19.6063 13.2292 18.8463 14.6675C18.7687 14.814 18.6361 14.9237 18.4776 14.9725C18.3191 15.0212 18.1478 15.005 18.0013 14.9275C17.8547 14.8499 17.745 14.7173 17.6963 14.5588C17.6475 14.4003 17.6637 14.229 17.7413 14.0825C18.406 12.8245 18.7523 11.4228 18.75 9.99996C18.75 8.52496 18.385 7.13496 17.7413 5.91746C17.7028 5.84491 17.6791 5.7655 17.6713 5.68376C17.6636 5.60202 17.6721 5.51956 17.6962 5.44109C17.7203 5.36262 17.7597 5.28968 17.8121 5.22643C17.8644 5.16317 17.9287 5.11086 18.0013 5.07246ZM3.82126 6.91746C3.89778 6.9473 3.96768 6.99192 4.02694 7.04879C4.08621 7.10566 4.13368 7.17365 4.16665 7.24888C4.19962 7.3241 4.21744 7.40509 4.21909 7.48721C4.22074 7.56933 4.20618 7.65097 4.17626 7.72746C3.89368 8.45174 3.74911 9.2225 3.75001 9.99996C3.75001 10.8025 3.90001 11.5687 4.17501 12.2725C4.20989 12.3497 4.22869 12.4333 4.23028 12.518C4.23186 12.6027 4.21618 12.6869 4.18421 12.7654C4.15223 12.8439 4.10463 12.9151 4.04428 12.9746C3.98394 13.0341 3.91211 13.0808 3.83318 13.1117C3.75425 13.1426 3.66986 13.1571 3.58514 13.1543C3.50043 13.1516 3.41715 13.1316 3.34039 13.0957C3.26362 13.0598 3.19497 13.0086 3.1386 12.9453C3.08224 12.882 3.03934 12.8079 3.01251 12.7275C2.67309 11.8582 2.49927 10.9331 2.50001 9.99996C2.50001 9.03871 2.68126 8.11871 3.01251 7.27246C3.07278 7.11821 3.1918 6.99419 3.34344 6.92763C3.49507 6.86107 3.66693 6.85741 3.82126 6.91746ZM16.1788 6.91746C16.2553 6.88753 16.3369 6.87298 16.419 6.87463C16.5011 6.87628 16.5821 6.8941 16.6573 6.92707C16.7326 6.96004 16.8006 7.00751 16.8574 7.06678C16.9143 7.12604 16.9589 7.19593 16.9888 7.27246C17.3188 8.11871 17.5 9.03871 17.5 9.99996C17.5 10.9612 17.3188 11.8812 16.9875 12.7275C16.9216 12.8735 16.8021 12.9886 16.6537 13.0491C16.5053 13.1095 16.3393 13.1107 16.1901 13.0523C16.0409 12.9939 15.9198 12.8804 15.8518 12.7353C15.7839 12.5901 15.7743 12.4245 15.825 12.2725C16.1 11.5687 16.25 10.8025 16.25 9.99996C16.25 9.19746 16.1 8.43121 15.825 7.72746C15.7645 7.57314 15.7678 7.4011 15.8341 7.2492C15.9005 7.09729 16.0244 6.97796 16.1788 6.91746Z" fill="#F8F8F8"/>
</g>
<defs>
<clipPath id="clip0_2_6101">
<rect width="20" height="20" fill="white"/>
</clipPath>
</defs>
</svg>
