<svg width="20" height="20" viewBox="0 0 20 20" fill="none" xmlns="http://www.w3.org/2000/svg">
<path d="M7.45833 11.1667H5.48333C5.28204 10.4019 5.28204 9.59809 5.48333 8.83333H7.45833C7.40695 9.22018 7.37912 9.60978 7.375 10C7.37912 10.3902 7.40695 10.7798 7.45833 11.1667ZM5.96667 7.66667H7.66667C7.86107 6.94685 8.13498 6.2509 8.48333 5.59167C7.42029 5.95475 6.52573 6.69232 5.96667 7.66667ZM14.0333 7.66667C13.4699 6.69276 12.573 5.9557 11.5083 5.59167C11.8615 6.24774 12.1329 6.94459 12.3167 7.66667H14.0333ZM10 14.6417C10.4952 13.938 10.8724 13.1583 11.1167 12.3333H8.88333C9.12764 13.1583 9.50481 13.938 10 14.6417ZM10 5.35C9.50438 6.05642 9.12722 6.8389 8.88333 7.66667H11.1167C10.8728 6.8389 10.4956 6.05642 10 5.35ZM5.96667 12.3333C6.52923 13.3047 7.42253 14.0412 8.48333 14.4083C8.13498 13.7491 7.86107 13.0532 7.66667 12.3333H5.96667ZM17.5 4.16667V15.8333C17.5 16.2754 17.3244 16.6993 17.0118 17.0118C16.6993 17.3244 16.2754 17.5 15.8333 17.5H4.16667C3.72464 17.5 3.30072 17.3244 2.98816 17.0118C2.67559 16.6993 2.5 16.2754 2.5 15.8333V4.16667C2.5 3.72464 2.67559 3.30072 2.98816 2.98816C3.30072 2.67559 3.72464 2.5 4.16667 2.5H15.8333C16.2754 2.5 16.6993 2.67559 17.0118 2.98816C17.3244 3.30072 17.5 3.72464 17.5 4.16667ZM15.8333 10C15.8333 8.84628 15.4912 7.71846 14.8502 6.75917C14.2093 5.79989 13.2982 5.05221 12.2323 4.6107C11.1664 4.16919 9.99353 4.05367 8.86197 4.27875C7.73042 4.50383 6.69102 5.0594 5.87521 5.87521C5.0594 6.69102 4.50383 7.73042 4.27875 8.86197C4.05367 9.99353 4.16919 11.1664 4.6107 12.2323C5.05221 13.2982 5.79989 14.2093 6.75917 14.8502C7.71846 15.4912 8.84628 15.8333 10 15.8333C11.5471 15.8333 13.0308 15.2188 14.1248 14.1248C15.2188 13.0308 15.8333 11.5471 15.8333 10ZM12.625 10C12.6209 10.3902 12.593 10.7798 12.5417 11.1667H14.5167C14.718 10.4019 14.718 9.59809 14.5167 8.83333H12.5417C12.593 9.22018 12.6209 9.60978 12.625 10ZM11.5083 14.4083C12.5719 14.0423 13.4681 13.3058 14.0333 12.3333H12.3167C12.1329 13.0554 11.8615 13.7523 11.5083 14.4083ZM8.63333 8.83333C8.50895 9.60614 8.50895 10.3939 8.63333 11.1667H11.3667C11.4237 10.7803 11.4544 10.3905 11.4583 10C11.4546 9.60947 11.424 9.21966 11.3667 8.83333H8.63333Z" fill="#F8F8F8"/>
</svg>
